<mxfile host="app.diagrams.net" modified="2023-11-10T11:42:43.274Z" agent="Mozilla/5.0 (X11; Ubuntu; Linux x86_64; rv:109.0) Gecko/20100101 Firefox/119.0" etag="6ZBqje_f9cVdq6uV-KrT" version="22.1.0" type="device">
  <diagram name="Page-1" id="8HLdOCyaWLrYiSinGWwf">
    <mxGraphModel dx="1434" dy="911" grid="1" gridSize="10" guides="1" tooltips="1" connect="1" arrows="1" fold="1" page="1" pageScale="1" pageWidth="850" pageHeight="1100" math="0" shadow="0">
      <root>
        <mxCell id="0" />
        <mxCell id="1" parent="0" />
        <mxCell id="Ay4HqfyImZraXbyHx8aG-1" value="PHDR" style="rounded=1;whiteSpace=wrap;html=1;fillColor=#e1d5e7;strokeColor=#000000;" parent="1" vertex="1">
          <mxGeometry x="10" y="390" width="80" height="30" as="geometry" />
        </mxCell>
        <mxCell id="Ay4HqfyImZraXbyHx8aG-2" value="PHDR_CRC" style="rounded=1;whiteSpace=wrap;html=1;fillColor=#e1d5e7;strokeColor=#000000;" parent="1" vertex="1">
          <mxGeometry x="90" y="390" width="90" height="30" as="geometry" />
        </mxCell>
        <mxCell id="Ay4HqfyImZraXbyHx8aG-3" value="MHDR" style="rounded=1;whiteSpace=wrap;html=1;fillColor=#FFF4C3;strokeColor=#000000;" parent="1" vertex="1">
          <mxGeometry x="180" y="390" width="80" height="30" as="geometry" />
        </mxCell>
        <mxCell id="Ay4HqfyImZraXbyHx8aG-4" value="SenderDevAddr" style="rounded=1;whiteSpace=wrap;html=1;fillColor=#fff2cc;strokeColor=#000000;" parent="1" vertex="1">
          <mxGeometry x="260" y="390" width="100" height="30" as="geometry" />
        </mxCell>
        <mxCell id="Ay4HqfyImZraXbyHx8aG-5" value="Timestamp" style="rounded=1;whiteSpace=wrap;html=1;fillColor=#fff2cc;strokeColor=#000000;" parent="1" vertex="1">
          <mxGeometry x="360" y="390" width="80" height="30" as="geometry" />
        </mxCell>
        <mxCell id="Ay4HqfyImZraXbyHx8aG-6" value="Phase" style="rounded=1;whiteSpace=wrap;html=1;fillColor=#fff2cc;strokeColor=#000000;" parent="1" vertex="1">
          <mxGeometry x="440" y="390" width="80" height="30" as="geometry" />
        </mxCell>
        <mxCell id="Ay4HqfyImZraXbyHx8aG-7" value="Class M Frame" style="rounded=1;whiteSpace=wrap;html=1;fillColor=#d5e8d4;strokeColor=#000000;" parent="1" vertex="1">
          <mxGeometry x="520" y="390" width="160" height="30" as="geometry" />
        </mxCell>
        <mxCell id="Ay4HqfyImZraXbyHx8aG-8" value="Additional Frames" style="rounded=1;whiteSpace=wrap;html=1;fillColor=#d5e8d4;strokeColor=#000000;" parent="1" vertex="1">
          <mxGeometry x="680" y="390" width="160" height="30" as="geometry" />
        </mxCell>
        <mxCell id="Ay4HqfyImZraXbyHx8aG-9" value="CRC" style="rounded=1;whiteSpace=wrap;html=1;fillColor=#E6D0DE;strokeColor=#000000;" parent="1" vertex="1">
          <mxGeometry x="840" y="390" width="80" height="30" as="geometry" />
        </mxCell>
        <mxCell id="Ay4HqfyImZraXbyHx8aG-10" value="" style="endArrow=none;html=1;rounded=0;" parent="1" edge="1">
          <mxGeometry width="50" height="50" relative="1" as="geometry">
            <mxPoint x="519" y="440" as="sourcePoint" />
            <mxPoint x="519" y="430" as="targetPoint" />
          </mxGeometry>
        </mxCell>
        <mxCell id="Ay4HqfyImZraXbyHx8aG-12" value="" style="endArrow=none;html=1;rounded=0;" parent="1" edge="1">
          <mxGeometry width="50" height="50" relative="1" as="geometry">
            <mxPoint x="160" y="440" as="sourcePoint" />
            <mxPoint x="520" y="440" as="targetPoint" />
          </mxGeometry>
        </mxCell>
        <mxCell id="Ay4HqfyImZraXbyHx8aG-13" value="" style="endArrow=none;html=1;rounded=0;" parent="1" edge="1">
          <mxGeometry width="50" height="50" relative="1" as="geometry">
            <mxPoint x="680" y="440" as="sourcePoint" />
            <mxPoint x="730" y="440" as="targetPoint" />
          </mxGeometry>
        </mxCell>
        <mxCell id="Ay4HqfyImZraXbyHx8aG-14" value="" style="endArrow=none;html=1;rounded=0;" parent="1" edge="1">
          <mxGeometry width="50" height="50" relative="1" as="geometry">
            <mxPoint x="160" y="440" as="sourcePoint" />
            <mxPoint x="160" y="460" as="targetPoint" />
          </mxGeometry>
        </mxCell>
        <mxCell id="Ay4HqfyImZraXbyHx8aG-15" value="" style="endArrow=none;html=1;rounded=0;" parent="1" edge="1">
          <mxGeometry width="50" height="50" relative="1" as="geometry">
            <mxPoint x="730" y="460" as="sourcePoint" />
            <mxPoint x="730" y="440" as="targetPoint" />
          </mxGeometry>
        </mxCell>
        <mxCell id="Ay4HqfyImZraXbyHx8aG-18" value="2B" style="text;html=1;strokeColor=none;fillColor=none;align=center;verticalAlign=middle;whiteSpace=wrap;rounded=0;" parent="1" vertex="1">
          <mxGeometry x="20" y="370" width="60" height="30" as="geometry" />
        </mxCell>
        <mxCell id="Ay4HqfyImZraXbyHx8aG-19" value="2B" style="text;html=1;strokeColor=none;fillColor=none;align=center;verticalAlign=middle;whiteSpace=wrap;rounded=0;" parent="1" vertex="1">
          <mxGeometry x="100" y="370" width="60" height="30" as="geometry" />
        </mxCell>
        <mxCell id="Ay4HqfyImZraXbyHx8aG-20" value="2B" style="text;html=1;strokeColor=none;fillColor=none;align=center;verticalAlign=middle;whiteSpace=wrap;rounded=0;" parent="1" vertex="1">
          <mxGeometry x="450" y="370" width="60" height="30" as="geometry" />
        </mxCell>
        <mxCell id="Ay4HqfyImZraXbyHx8aG-21" value="2B" style="text;html=1;strokeColor=none;fillColor=none;align=center;verticalAlign=middle;whiteSpace=wrap;rounded=0;" parent="1" vertex="1">
          <mxGeometry x="850" y="370" width="60" height="30" as="geometry" />
        </mxCell>
        <mxCell id="Ay4HqfyImZraXbyHx8aG-22" value="1B" style="text;html=1;strokeColor=none;fillColor=none;align=center;verticalAlign=middle;whiteSpace=wrap;rounded=0;" parent="1" vertex="1">
          <mxGeometry x="190" y="370" width="60" height="30" as="geometry" />
        </mxCell>
        <mxCell id="Ay4HqfyImZraXbyHx8aG-25" value="4B" style="text;html=1;strokeColor=none;fillColor=none;align=center;verticalAlign=middle;whiteSpace=wrap;rounded=0;" parent="1" vertex="1">
          <mxGeometry x="280" y="370" width="60" height="30" as="geometry" />
        </mxCell>
        <mxCell id="Ay4HqfyImZraXbyHx8aG-26" value="4B" style="text;html=1;strokeColor=none;fillColor=none;align=center;verticalAlign=middle;whiteSpace=wrap;rounded=0;" parent="1" vertex="1">
          <mxGeometry x="370" y="370" width="60" height="30" as="geometry" />
        </mxCell>
        <mxCell id="Ay4HqfyImZraXbyHx8aG-45" value="MMType" style="rounded=1;whiteSpace=wrap;html=1;fillColor=#fff2cc;strokeColor=#000000;" parent="1" vertex="1">
          <mxGeometry x="160" y="472.5" width="80" height="30" as="geometry" />
        </mxCell>
        <mxCell id="Ay4HqfyImZraXbyHx8aG-46" value="Length" style="rounded=1;whiteSpace=wrap;html=1;fillColor=#fff2cc;strokeColor=#000000;" parent="1" vertex="1">
          <mxGeometry x="240" y="472.5" width="80" height="30" as="geometry" />
        </mxCell>
        <mxCell id="Ay4HqfyImZraXbyHx8aG-47" value="ReceiverDevAddr" style="rounded=1;whiteSpace=wrap;html=1;fillColor=#fff2cc;strokeColor=#000000;" parent="1" vertex="1">
          <mxGeometry x="320" y="472.5" width="110" height="30" as="geometry" />
        </mxCell>
        <mxCell id="Ay4HqfyImZraXbyHx8aG-52" value="Sending Data" style="text;html=1;strokeColor=none;fillColor=none;align=center;verticalAlign=middle;whiteSpace=wrap;rounded=0;" parent="1" vertex="1">
          <mxGeometry x="60" y="467.5" width="90" height="40" as="geometry" />
        </mxCell>
        <mxCell id="Ay4HqfyImZraXbyHx8aG-56" value="Payload" style="rounded=1;whiteSpace=wrap;html=1;fillColor=#fff2cc;strokeColor=#000000;" parent="1" vertex="1">
          <mxGeometry x="430" y="472.5" width="150" height="30" as="geometry" />
        </mxCell>
        <mxCell id="Ay4HqfyImZraXbyHx8aG-57" value="" style="endArrow=none;html=1;rounded=0;" parent="1" edge="1">
          <mxGeometry width="50" height="50" relative="1" as="geometry">
            <mxPoint x="430" y="512.5" as="sourcePoint" />
            <mxPoint x="430" y="532.5" as="targetPoint" />
          </mxGeometry>
        </mxCell>
        <mxCell id="Ay4HqfyImZraXbyHx8aG-58" value="" style="endArrow=none;html=1;rounded=0;" parent="1" edge="1">
          <mxGeometry width="50" height="50" relative="1" as="geometry">
            <mxPoint x="580" y="512.5" as="sourcePoint" />
            <mxPoint x="580" y="532.5" as="targetPoint" />
          </mxGeometry>
        </mxCell>
        <mxCell id="Ay4HqfyImZraXbyHx8aG-59" value="" style="endArrow=none;html=1;rounded=0;" parent="1" edge="1">
          <mxGeometry width="50" height="50" relative="1" as="geometry">
            <mxPoint x="240" y="533" as="sourcePoint" />
            <mxPoint x="430" y="532.5" as="targetPoint" />
          </mxGeometry>
        </mxCell>
        <mxCell id="Ay4HqfyImZraXbyHx8aG-60" value="" style="endArrow=none;html=1;rounded=0;" parent="1" edge="1">
          <mxGeometry width="50" height="50" relative="1" as="geometry">
            <mxPoint x="580" y="532.5" as="sourcePoint" />
            <mxPoint x="930" y="533" as="targetPoint" />
          </mxGeometry>
        </mxCell>
        <mxCell id="Ay4HqfyImZraXbyHx8aG-61" value="" style="endArrow=none;html=1;rounded=0;" parent="1" edge="1">
          <mxGeometry width="50" height="50" relative="1" as="geometry">
            <mxPoint x="930" y="551" as="sourcePoint" />
            <mxPoint x="930" y="533" as="targetPoint" />
          </mxGeometry>
        </mxCell>
        <mxCell id="Ay4HqfyImZraXbyHx8aG-62" value="" style="endArrow=none;html=1;rounded=0;" parent="1" edge="1">
          <mxGeometry width="50" height="50" relative="1" as="geometry">
            <mxPoint x="240" y="533" as="sourcePoint" />
            <mxPoint x="240" y="561" as="targetPoint" />
          </mxGeometry>
        </mxCell>
        <mxCell id="Ay4HqfyImZraXbyHx8aG-65" value="MMType:0x33" style="rounded=1;whiteSpace=wrap;html=1;fillColor=#fff2cc;strokeColor=#000000;" parent="1" vertex="1">
          <mxGeometry x="240" y="561" width="110" height="30" as="geometry" />
        </mxCell>
        <mxCell id="Ay4HqfyImZraXbyHx8aG-67" value="EndDevAddr" style="rounded=1;whiteSpace=wrap;html=1;fillColor=#fff2cc;strokeColor=#000000;" parent="1" vertex="1">
          <mxGeometry x="350" y="561" width="110" height="30" as="geometry" />
        </mxCell>
        <mxCell id="Ay4HqfyImZraXbyHx8aG-70" value="Message to Forward" style="text;html=1;strokeColor=none;fillColor=none;align=center;verticalAlign=middle;whiteSpace=wrap;rounded=0;" parent="1" vertex="1">
          <mxGeometry x="105" y="576" width="125" as="geometry" />
        </mxCell>
        <mxCell id="Ay4HqfyImZraXbyHx8aG-75" value="Length" style="rounded=1;whiteSpace=wrap;html=1;fillColor=#fff2cc;strokeColor=#000000;" parent="1" vertex="1">
          <mxGeometry x="460" y="561" width="80" height="30" as="geometry" />
        </mxCell>
        <mxCell id="Ay4HqfyImZraXbyHx8aG-76" value="SenderDevAddr" style="rounded=1;whiteSpace=wrap;html=1;fillColor=#fff2cc;strokeColor=#000000;" parent="1" vertex="1">
          <mxGeometry x="540" y="561" width="100" height="30" as="geometry" />
        </mxCell>
        <mxCell id="Ay4HqfyImZraXbyHx8aG-77" value="Payload" style="rounded=1;whiteSpace=wrap;html=1;fillColor=#f8cecc;strokeColor=#b85450;" parent="1" vertex="1">
          <mxGeometry x="740" y="561" width="110" height="30" as="geometry" />
        </mxCell>
        <mxCell id="Ay4HqfyImZraXbyHx8aG-78" value="MIC" style="rounded=1;whiteSpace=wrap;html=1;fillColor=#fff2cc;strokeColor=#000000;" parent="1" vertex="1">
          <mxGeometry x="850" y="561" width="80" height="30" as="geometry" />
        </mxCell>
        <mxCell id="Ay4HqfyImZraXbyHx8aG-85" value="1B" style="text;html=1;strokeColor=none;fillColor=none;align=center;verticalAlign=middle;whiteSpace=wrap;rounded=0;" parent="1" vertex="1">
          <mxGeometry x="170" y="452.5" width="60" height="30" as="geometry" />
        </mxCell>
        <mxCell id="Ay4HqfyImZraXbyHx8aG-87" value="1B" style="text;html=1;strokeColor=none;fillColor=none;align=center;verticalAlign=middle;whiteSpace=wrap;rounded=0;" parent="1" vertex="1">
          <mxGeometry x="265" y="541" width="60" height="30" as="geometry" />
        </mxCell>
        <mxCell id="Ay4HqfyImZraXbyHx8aG-88" value="1B" style="text;html=1;strokeColor=none;fillColor=none;align=center;verticalAlign=middle;whiteSpace=wrap;rounded=0;" parent="1" vertex="1">
          <mxGeometry x="470" y="541" width="60" height="30" as="geometry" />
        </mxCell>
        <mxCell id="Ay4HqfyImZraXbyHx8aG-90" value="1B" style="text;html=1;strokeColor=none;fillColor=none;align=center;verticalAlign=middle;whiteSpace=wrap;rounded=0;" parent="1" vertex="1">
          <mxGeometry x="250" y="452.5" width="60" height="30" as="geometry" />
        </mxCell>
        <mxCell id="Ay4HqfyImZraXbyHx8aG-94" value="Length B" style="text;html=1;strokeColor=none;fillColor=none;align=center;verticalAlign=middle;whiteSpace=wrap;rounded=0;" parent="1" vertex="1">
          <mxGeometry x="475" y="450" width="60" height="30" as="geometry" />
        </mxCell>
        <mxCell id="Ay4HqfyImZraXbyHx8aG-95" value="4B" style="text;html=1;strokeColor=none;fillColor=none;align=center;verticalAlign=middle;whiteSpace=wrap;rounded=0;" parent="1" vertex="1">
          <mxGeometry x="350" y="452.5" width="60" height="30" as="geometry" />
        </mxCell>
        <mxCell id="Ay4HqfyImZraXbyHx8aG-96" value="4B" style="text;html=1;strokeColor=none;fillColor=none;align=center;verticalAlign=middle;whiteSpace=wrap;rounded=0;" parent="1" vertex="1">
          <mxGeometry x="375" y="541" width="60" height="30" as="geometry" />
        </mxCell>
        <mxCell id="Ay4HqfyImZraXbyHx8aG-97" value="4B" style="text;html=1;strokeColor=none;fillColor=none;align=center;verticalAlign=middle;whiteSpace=wrap;rounded=0;" parent="1" vertex="1">
          <mxGeometry x="560" y="541" width="60" height="30" as="geometry" />
        </mxCell>
        <mxCell id="Ay4HqfyImZraXbyHx8aG-100" value="4B" style="text;html=1;strokeColor=none;fillColor=none;align=center;verticalAlign=middle;whiteSpace=wrap;rounded=0;" parent="1" vertex="1">
          <mxGeometry x="860" y="541" width="60" height="30" as="geometry" />
        </mxCell>
        <mxCell id="Ay4HqfyImZraXbyHx8aG-112" value="Length B" style="text;html=1;strokeColor=none;fillColor=none;align=center;verticalAlign=middle;whiteSpace=wrap;rounded=0;" parent="1" vertex="1">
          <mxGeometry x="765" y="541" width="60" height="30" as="geometry" />
        </mxCell>
        <mxCell id="PsKb43Itvn3fUjrFtPbW-4" value="Fport" style="rounded=1;whiteSpace=wrap;html=1;fillColor=#fff2cc;strokeColor=#000000;" parent="1" vertex="1">
          <mxGeometry x="640" y="561" width="50" height="30" as="geometry" />
        </mxCell>
        <mxCell id="PsKb43Itvn3fUjrFtPbW-5" value="Fcnt" style="rounded=1;whiteSpace=wrap;html=1;fillColor=#fff2cc;strokeColor=#000000;" parent="1" vertex="1">
          <mxGeometry x="690" y="561" width="50" height="30" as="geometry" />
        </mxCell>
        <mxCell id="PsKb43Itvn3fUjrFtPbW-6" value="1B" style="text;html=1;strokeColor=none;fillColor=none;align=center;verticalAlign=middle;whiteSpace=wrap;rounded=0;" parent="1" vertex="1">
          <mxGeometry x="635" y="541" width="60" height="30" as="geometry" />
        </mxCell>
        <mxCell id="PsKb43Itvn3fUjrFtPbW-7" value="&lt;div&gt;2B&lt;/div&gt;" style="text;html=1;strokeColor=none;fillColor=none;align=center;verticalAlign=middle;whiteSpace=wrap;rounded=0;" parent="1" vertex="1">
          <mxGeometry x="685" y="541" width="60" height="30" as="geometry" />
        </mxCell>
        <mxCell id="cVlGQNvJfZsdUlE4fLRG-1" value="Additional Payload" style="rounded=1;whiteSpace=wrap;html=1;fillColor=#fff2cc;strokeColor=#000000;" parent="1" vertex="1">
          <mxGeometry x="580" y="472.5" width="150" height="30" as="geometry" />
        </mxCell>
        <mxCell id="bgWFAQZqnLupBwjpjbh9-1" value="" style="endArrow=none;html=1;rounded=0;" edge="1" parent="1">
          <mxGeometry width="50" height="50" relative="1" as="geometry">
            <mxPoint x="680" y="430" as="sourcePoint" />
            <mxPoint x="680" y="440" as="targetPoint" />
          </mxGeometry>
        </mxCell>
        <mxCell id="bgWFAQZqnLupBwjpjbh9-7" value="" style="edgeStyle=orthogonalEdgeStyle;rounded=0;orthogonalLoop=1;jettySize=auto;html=1;" edge="1" parent="1" source="bgWFAQZqnLupBwjpjbh9-5">
          <mxGeometry relative="1" as="geometry">
            <mxPoint x="585" y="670" as="targetPoint" />
          </mxGeometry>
        </mxCell>
        <mxCell id="bgWFAQZqnLupBwjpjbh9-5" value="" style="shape=curlyBracket;whiteSpace=wrap;html=1;rounded=1;labelPosition=left;verticalLabelPosition=middle;align=right;verticalAlign=middle;rotation=-90;" vertex="1" parent="1">
          <mxGeometry x="570" y="280" width="30" height="690" as="geometry" />
        </mxCell>
        <mxCell id="bgWFAQZqnLupBwjpjbh9-16" value="&lt;div&gt;NODE 4&lt;br&gt;&lt;/div&gt;&lt;div&gt;&amp;nbsp;DATA QUEUE&lt;br&gt;&lt;/div&gt;" style="shape=cylinder3;whiteSpace=wrap;html=1;boundedLbl=1;backgroundOutline=1;size=15;" vertex="1" parent="1">
          <mxGeometry x="537.5" y="760" width="95" height="110" as="geometry" />
        </mxCell>
        <mxCell id="bgWFAQZqnLupBwjpjbh9-17" value="" style="endArrow=classic;html=1;rounded=0;exitX=0.5;exitY=1;exitDx=0;exitDy=0;exitPerimeter=0;" edge="1" parent="1" source="bgWFAQZqnLupBwjpjbh9-16">
          <mxGeometry width="50" height="50" relative="1" as="geometry">
            <mxPoint x="600" y="920" as="sourcePoint" />
            <mxPoint x="585" y="930" as="targetPoint" />
          </mxGeometry>
        </mxCell>
        <mxCell id="bgWFAQZqnLupBwjpjbh9-18" value="Aggregate to a Beacon transmission" style="text;html=1;strokeColor=none;fillColor=none;align=center;verticalAlign=middle;whiteSpace=wrap;rounded=0;" vertex="1" parent="1">
          <mxGeometry x="610" y="880" width="60" height="30" as="geometry" />
        </mxCell>
        <mxCell id="bgWFAQZqnLupBwjpjbh9-21" value="ROUTING with Access nodes list" style="rounded=1;whiteSpace=wrap;html=1;" vertex="1" parent="1">
          <mxGeometry x="525" y="670" width="120" height="60" as="geometry" />
        </mxCell>
        <mxCell id="bgWFAQZqnLupBwjpjbh9-22" style="edgeStyle=orthogonalEdgeStyle;rounded=0;orthogonalLoop=1;jettySize=auto;html=1;exitX=0.5;exitY=1;exitDx=0;exitDy=0;entryX=0.5;entryY=0;entryDx=0;entryDy=0;entryPerimeter=0;" edge="1" parent="1" source="bgWFAQZqnLupBwjpjbh9-21" target="bgWFAQZqnLupBwjpjbh9-16">
          <mxGeometry relative="1" as="geometry" />
        </mxCell>
        <mxCell id="bgWFAQZqnLupBwjpjbh9-23" value="pass frame" style="text;html=1;strokeColor=none;fillColor=none;align=center;verticalAlign=middle;whiteSpace=wrap;rounded=0;" vertex="1" parent="1">
          <mxGeometry x="580" y="730" width="95" height="30" as="geometry" />
        </mxCell>
      </root>
    </mxGraphModel>
  </diagram>
</mxfile>
